<svg width="39" height="62" viewBox="0 0 39 62" fill="none" xmlns="http://www.w3.org/2000/svg">
<path d="M38.8948 0.770564C39.0443 0.538344 38.9771 0.228958 38.7449 0.0795296C38.5127 -0.0698985 38.2033 -0.00278294 38.0539 0.229436L38.4744 0.5L38.8948 0.770564ZM1.82333 59.5068C1.96071 59.2672 1.87788 58.9617 1.63834 58.8243C1.39879 58.6869 1.09324 58.7697 0.95586 59.0093L1.38959 59.258L1.82333 59.5068ZM2.98907 55.5863C2.84592 55.8224 2.9213 56.1299 3.15745 56.2731C3.39359 56.4162 3.70106 56.3408 3.84421 56.1047L3.41664 55.8455L2.98907 55.5863ZM5.9133 52.7246C6.05827 52.4896 5.98525 52.1815 5.75022 52.0366C5.51519 51.8916 5.20714 51.9646 5.06218 52.1996L5.48774 52.4621L5.9133 52.7246ZM7.15699 48.8204C7.01105 49.0548 7.08278 49.3632 7.3172 49.5091C7.55163 49.655 7.85998 49.5833 8.00592 49.3489L7.58146 49.0846L7.15699 48.8204ZM10.114 45.9735C10.2606 45.7395 10.1897 45.431 9.95571 45.2844C9.72168 45.1378 9.41314 45.2087 9.26656 45.4427L9.6903 45.7081L10.114 45.9735ZM11.3742 42.0855C11.2271 42.3192 11.2974 42.6279 11.5311 42.7749C11.7649 42.922 12.0736 42.8517 12.2206 42.618L11.7974 42.3517L11.3742 42.0855ZM14.3397 39.2553C14.4871 39.0218 14.4173 38.713 14.1838 38.5656C13.9503 38.4182 13.6415 38.488 13.4941 38.7215L13.9169 38.9884L14.3397 39.2553ZM15.6144 35.3671C15.4667 35.6005 15.5361 35.9093 15.7695 36.057C16.0028 36.2047 16.3117 36.1353 16.4594 35.9019L16.0369 35.6345L15.6144 35.3671ZM18.5872 32.5439C18.7351 32.3108 18.666 32.0018 18.4328 31.8539C18.1997 31.706 17.8907 31.7751 17.7428 32.0083L18.165 32.2761L18.5872 32.5439ZM19.87 28.6584C19.7219 28.8914 19.7907 29.2004 20.0238 29.3486C20.2568 29.4967 20.5658 29.4279 20.7139 29.1948L20.292 28.9266L19.87 28.6584ZM22.8454 25.8443C22.9937 25.6114 22.9251 25.3023 22.6922 25.154C22.4593 25.0057 22.1502 25.0743 22.0019 25.3073L22.4237 25.5758L22.8454 25.8443ZM24.1361 21.9581C23.9876 22.1909 24.056 22.5 24.2888 22.6485C24.5216 22.7969 24.8307 22.7286 24.9792 22.4957L24.5576 22.2269L24.1361 21.9581ZM27.1162 19.1471C27.2648 18.9144 27.1966 18.6052 26.9639 18.4566C26.7311 18.308 26.422 18.3762 26.2734 18.6089L26.6948 18.878L27.1162 19.1471ZM28.4099 15.2655C28.2612 15.4982 28.3292 15.8073 28.5618 15.9561C28.7945 16.1049 29.1037 16.0369 29.2524 15.8043L28.8312 15.5349L28.4099 15.2655ZM31.3951 12.4558C31.544 12.2232 31.4762 11.914 31.2436 11.7651C31.0111 11.6162 30.7019 11.684 30.5529 11.9165L30.974 12.1861L31.3951 12.4558ZM32.6934 8.57582C32.5444 8.80829 32.612 9.11757 32.8445 9.26661C33.0769 9.41565 33.3862 9.34802 33.5352 9.11556L33.1143 8.84569L32.6934 8.57582ZM35.6827 5.76843C35.8318 5.53605 35.7644 5.22673 35.532 5.07755C35.2996 4.92836 34.9903 4.9958 34.8411 5.22818L35.2619 5.4983L35.6827 5.76843ZM36.9832 1.89408C36.8338 2.12635 36.9011 2.43571 37.1334 2.58505C37.3656 2.73439 37.675 2.66716 37.8243 2.43489L37.4038 2.16448L36.9832 1.89408ZM0.474365 61L0.948707 61.1581C0.973717 61.0831 1.0538 60.9079 1.20972 60.6117C1.35975 60.3266 1.56535 59.9566 1.82333 59.5068L1.38959 59.258L0.95586 59.0093C0.695137 59.4639 0.482861 59.8456 0.324823 60.1459C0.172671 60.4349 0.054495 60.6785 2.35736e-05 60.8419L0.474365 61ZM3.41664 55.8455L3.84421 56.1047C4.45578 55.0958 5.14957 53.9629 5.9133 52.7246L5.48774 52.4621L5.06218 52.1996C4.29748 53.4394 3.6023 54.5747 2.98907 55.5863L3.41664 55.8455ZM7.58146 49.0846L8.00592 49.3489C8.67564 48.2731 9.3802 47.1452 10.114 45.9735L9.6903 45.7081L9.26656 45.4427C8.53231 46.615 7.82726 47.7437 7.15699 48.8204L7.58146 49.0846ZM11.7974 42.3517L12.2206 42.618C12.9096 41.5227 13.6172 40.3999 14.3397 39.2553L13.9169 38.9884L13.4941 38.7215C12.7713 39.8665 12.0634 40.9898 11.3742 42.0855L11.7974 42.3517ZM16.0369 35.6345L16.4594 35.9019C17.1598 34.7952 17.8702 33.6743 18.5872 32.5439L18.165 32.2761L17.7428 32.0083C17.0256 33.1389 16.3151 34.2601 15.6144 35.3671L16.0369 35.6345ZM20.292 28.9266L20.7139 29.1948C21.4219 28.081 22.1334 26.9627 22.8454 25.8443L22.4237 25.5758L22.0019 25.3073C21.2897 26.4258 20.5781 27.5443 19.87 28.6584L20.292 28.9266ZM24.5576 22.2269L24.9792 22.4957C25.6948 21.3736 26.4081 20.2558 27.1162 19.1471L26.6948 18.878L26.2734 18.6089C25.5652 19.7178 24.8518 20.8357 24.1361 21.9581L24.5576 22.2269ZM28.8312 15.5349L29.2524 15.8043C29.9767 14.6716 30.6921 13.5537 31.3951 12.4558L30.974 12.1861L30.5529 11.9165C29.8498 13.0146 29.1344 14.1327 28.4099 15.2655L28.8312 15.5349ZM33.1143 8.84569L33.5352 9.11556C34.2713 7.96751 34.9886 6.84957 35.6827 5.76843L35.2619 5.4983L34.8411 5.22818C34.1469 6.30949 33.4296 7.42761 32.6934 8.57582L33.1143 8.84569ZM37.4038 2.16448L37.8243 2.43489C38.1906 1.86528 38.5477 1.31009 38.8948 0.770564L38.4744 0.5L38.0539 0.229436C37.7067 0.76907 37.3495 1.32437 36.9832 1.89408L37.4038 2.16448Z" fill="#D1BCA0"/>
</svg>
